HIERARCHY
ROOT reference
{
  OFFSET 0 0 0
  CHANNELS 6 Xposition Yposition Zposition Zrotation Xrotation Yrotation
  JOINT Hips
  {
    OFFSET 0 97.8064 0
    CHANNELS 6 Xposition Yposition Zposition Zrotation Xrotation Yrotation
    JOINT ToSpine
    {
      OFFSET -2.69724 7.43032 -0.144315
      CHANNELS 6 Xposition Yposition Zposition Zrotation Xrotation Yrotation
      JOINT Spine
      {
        OFFSET -0.0310711 10.7595 1.96963
        CHANNELS 6 Xposition Yposition Zposition Zrotation Xrotation Yrotation
        JOINT Spine1
        {
          OFFSET 13.1342 3.43533 0.764692
          CHANNELS 6 Xposition Yposition Zposition Zrotation Xrotation Yrotation
          JOINT Neck
          {
            OFFSET 29.8703 7.82586 -0.130764
            CHANNELS 6 Xposition Yposition Zposition Zrotation Xrotation Yrotation
            JOINT Head
            {
              OFFSET 9.52751 0.295786 -0.907742
              CHANNELS 6 Xposition Yposition Zposition Zrotation Xrotation Yrotation
              End Site
              {
                OFFSET 16.4037 0.713936 2.7358
              }
            }
          }
          JOINT LeftShoulder
          {
            OFFSET 27.5574 4.95586 2.47156
            CHANNELS 6 Xposition Yposition Zposition Zrotation Xrotation Yrotation
            JOINT LeftArm
            {
              OFFSET 1.20734 -0.998971 20.1238
              CHANNELS 6 Xposition Yposition Zposition Zrotation Xrotation Yrotation
              JOINT LeftForeArm
              {
                OFFSET 26.8049 -0.0536703 -0.155908
                CHANNELS 6 Xposition Yposition Zposition Zrotation Xrotation Yrotation
                JOINT LeftHand
                {
                  OFFSET 26.6817 0 0.320147
                  CHANNELS 6 Xposition Yposition Zposition Zrotation Xrotation Yrotation
                  End Site
                  {
                    OFFSET 18.6119 0 0.382219
                  }
                }
              }
            }
          }
          JOINT RightShoulder
          {
            OFFSET 27.5927 4.71444 -2.65209
            CHANNELS 6 Xposition Yposition Zposition Zrotation Xrotation Yrotation
            JOINT RightArm
            {
              OFFSET 2.83739 -1.17114 -18.7564
              CHANNELS 6 Xposition Yposition Zposition Zrotation Xrotation Yrotation
              JOINT RightForeArm
              {
                OFFSET 28.839 -0.0548439 1.22491
                CHANNELS 6 Xposition Yposition Zposition Zrotation Xrotation Yrotation
                JOINT RightHand
                {
                  OFFSET 26.5114 0 -0.101894
                  CHANNELS 6 Xposition Yposition Zposition Zrotation Xrotation Yrotation
                  End Site
                  {
                    OFFSET 18.2168 0 0
                  }
                }
              }
            }
          }
        }
      }
    }
    JOINT LeftUpLeg
    {
      OFFSET -4.76168 -1.9167 -10.2353
      CHANNELS 6 Xposition Yposition Zposition Zrotation Xrotation Yrotation
      JOINT LeftLeg
      {
        OFFSET 2.55951 -42.0585 -8.02213
        CHANNELS 6 Xposition Yposition Zposition Zrotation Xrotation Yrotation
        JOINT LeftFoot
        {
          OFFSET 3.16357 -42.5282 -3.95426
          CHANNELS 6 Xposition Yposition Zposition Zrotation Xrotation Yrotation
          JOINT LeftToeBase
          {
            OFFSET 0.346054 -6.02161 12.8035
            CHANNELS 6 Xposition Yposition Zposition Zrotation Xrotation Yrotation
            End Site
            {
              OFFSET 0.134235 -1.35082 5.13018
            }
          }
        }
      }
    }
    JOINT RightUpLeg
    {
      OFFSET -4.94151 -1.41743 10.6446
      CHANNELS 6 Xposition Yposition Zposition Zrotation Xrotation Yrotation
      JOINT RightLeg
      {
        OFFSET -2.56294 -42.0364 -7.94377
        CHANNELS 6 Xposition Yposition Zposition Zrotation Xrotation Yrotation
        JOINT RightFoot
        {
          OFFSET -3.0952 -42.555 -4.02241
          CHANNELS 6 Xposition Yposition Zposition Zrotation Xrotation Yrotation
          JOINT RightToeBase
          {
            OFFSET -0.0828122 -6.13587 12.8035
            CHANNELS 6 Xposition Yposition Zposition Zrotation Xrotation Yrotation
            End Site
            {
              OFFSET -0.131328 -1.35082 5.13018
            }
          }
        }
      }
    }
  }
}
MOTION
Frames:	8
Frame Time:	0.0333333
0 0 0 0 0 -0 0 97.8064 0 -9.21641 -69.4912 -99.4257 -2.69724 7.43032 -0.144315 -70.1915 -6.18407e-015 88.8779 -0.0310711 10.7595 1.96963 64.9783 69.5887 25.2871 13.1342 3.43533 0.764692 4.60351 20.8703 1.40837 29.8703 7.82586 -0.130764 -158.867 19.9774 178.863 9.52751 0.295786 -0.907742 -163.551 59.618 -171.956 27.5574 4.95586 2.47156 3.81932 1.88815 -1.18989 1.20734 -0.998971 20.1238 -90 -2.89528e-014 -90 26.8049 -0.0536703 -0.155908 -2.27865e-008 -1.09882e-007 -6.77748e-008 26.6817 -2.84217e-014 0.320147 -4.83776e-016 2.19066e-016 -1.61484e-015 27.5927 4.71444 -2.65209 2.06088 1.77022 3.86625 2.83739 -1.17114 -18.7564 -88.2385 5 88.8941 28.839 -0.0548439 1.22491 1.27948e-006 4.79839e-007 0.0043221 26.5114 0 -0.101894 -1.10621e-012 -4.76474e-009 -0.0296889 -4.76168 -1.9167 -10.2353 -54.5197 2.7833 99.4142 2.55951 -42.0585 -8.02213 -1.21668 19.2657 -6.32176 3.16357 -42.5282 -3.95426 3.72058 -5.93042 -0.842831 0.346054 -6.02161 12.8035 0.207147 -0.61891 0.346907 -4.94151 -1.41743 10.6446 -55.5919 -0.189965 81.4537 -2.56294 -42.0364 -7.94377 1.38344 13.6714 6.74024 -3.0952 -42.555 -4.02241 -6.15803 -1.03764 0.970027 -0.0828122 -6.13587 12.8035 1.52296 -4.82373 -7.85573 
0 0 0 0 0 -0 19.4056 94.4943 -0.214113 68.4675 -35.0111 -12.9527 -2.69724 7.43032 -0.144315 -70.1915 -1.78906e-015 88.8779 -0.0310711 10.7595 1.96963 65.8357 69.8482 14.2648 13.1342 3.43533 0.764692 4.37901 18.7747 6.18944 29.8703 7.82586 -0.130764 -126.136 33.8271 154.939 9.52751 0.295786 -0.907742 172.236 77.4575 -149.532 27.5574 4.95586 2.47156 0.0654222 -16.6159 -25.2423 1.20734 -0.998971 20.1238 -60.8991 37.1699 -143.951 26.8049 -0.0536703 -0.155908 24.9781 -5.01084 -99.866 26.6817 -1.42109e-014 0.320147 -3.18055e-015 0 -0 27.5927 4.71444 -2.65209 -1.80223 7.71696 37.664 2.83739 -1.17114 -18.7564 -135.27 -14.7011 88.4072 28.839 -0.0548439 1.22491 20.6516 -1.91465 84.7625 26.5114 2.84217e-014 -0.101894 -1.09892e-012 -4.76474e-009 -0.0296889 -4.76168 -1.9167 -10.2353 -56.3412 8.20569 96.1781 2.55951 -42.0585 -8.02213 -1.44797 34.2637 -2.51322 3.16357 -42.5282 -3.95426 0.093039 -14.0973 -1.21302 0.346054 -6.02161 12.8035 2.99588 -8.48951 8.49856 -4.94151 -1.41743 10.6446 -44.0597 -12.4575 81.985 -2.56294 -42.0364 -7.94377 0.204443 26.2613 4.43214 -3.0952 -42.555 -4.02241 -3.09042 0.592644 0.516983 -0.0828122 -6.13587 12.8035 -0.174021 -5.02137 6.37184 
0 0 0 0 0 -0 19.4417 94.4702 -0.204735 68.4742 -35.0556 -12.9855 -2.69724 7.43032 -0.144315 -70.1915 -1.19271e-015 88.8779 -0.0310711 10.7595 1.96963 65.5555 69.8275 14.6112 13.1342 3.43533 0.764692 4.52995 18.8295 6.06095 29.8703 7.82586 -0.130764 -126.222 33.8713 155.1 9.52751 0.295786 -0.907742 169.925 77.3091 -147.58 27.5574 4.95586 2.47156 0.054569 -16.673 -25.268 1.20734 -0.998971 20.1238 -60.682 37.4942 -143.932 26.8049 -0.0536703 -0.155908 25.0571 -5.27723 -100.371 26.6817 -2.84217e-014 0.320147 -6.36111e-015 -1.59028e-015 -3.18055e-015 27.5927 4.71444 -2.65209 -1.80422 7.67191 37.829 2.83739 -1.17114 -18.7564 -135.326 -14.6948 88.5777 28.839 -0.0548439 1.22491 20.4844 -1.89179 84.7778 26.5114 2.84217e-014 -0.101894 -1.11004e-012 -4.76474e-009 -0.0296889 -4.76168 -1.9167 -10.2353 -56.4941 8.12202 96.1723 2.55951 -42.0585 -8.02213 -1.45769 34.116 -2.87386 3.16357 -42.5282 -3.95426 -0.915518 -13.8494 -1.18793 0.346054 -6.02161 12.8035 3.42501 -9.39986 9.35858 -4.94151 -1.41743 10.6446 -44.0093 -12.372 82.2858 -2.56294 -42.0364 -7.94377 0.125853 26.6294 4.2099 -3.0952 -42.555 -4.02241 -3.56194 0.556198 0.58236 -0.0828122 -6.13587 12.8035 0.0903724 -5.69158 5.08556 
0 0 0 0 0 -0 19.4789 94.4359 -0.183903 68.4705 -35.0052 -13.0387 -2.69724 7.43032 -0.144315 -70.1915 -5.96354e-015 88.8779 -0.0310711 10.7595 1.96963 64.3599 69.8763 15.9003 13.1342 3.43533 0.764692 4.80407 19.1803 5.49319 29.8703 7.82586 -0.130764 -124.489 33.0199 152.725 9.52751 0.295786 -0.907742 176.061 77.663 -152.522 27.5574 4.95586 2.47156 -0.00278571 -17.2469 -24.7959 1.20734 -0.998971 20.1238 -60.956 37.2795 -143.896 26.8049 -0.0536703 -0.155908 24.732 -4.83057 -99.6098 26.6817 -2.84217e-014 0.320147 -3.18055e-015 0 -0 27.5927 4.71444 -2.65209 -1.80128 7.29999 39.0743 2.83739 -1.17114 -18.7564 -135.378 -13.6123 89.3257 28.839 -0.0548439 1.22491 20.3434 -1.90757 84.7007 26.5114 4.26326e-014 -0.101894 -1.09652e-012 -4.76473e-009 -0.0296889 -4.76168 -1.9167 -10.2353 -56.4226 8.13897 96.3273 2.55951 -42.0585 -8.02213 -1.51701 34.324 -2.9248 3.16357 -42.5282 -3.95426 -1.3564 -14.408 -1.23646 0.346054 -6.02161 12.8035 3.05553 -8.73003 9.19316 -4.94151 -1.41743 10.6446 -44.0256 -12.4765 82.1972 -2.56294 -42.0364 -7.94377 0.197438 26.6223 4.15284 -3.0952 -42.555 -4.02241 -4.24632 0.905864 0.662063 -0.0828122 -6.13587 12.8035 0.288889 -6.99416 5.31695 
0 0 0 0 0 -0 19.4592 94.4524 -0.135481 68.4379 -34.9764 -13.072 -2.69724 7.43032 -0.144315 -70.1915 -3.77691e-015 88.8779 -0.0310711 10.7595 1.96963 64.4677 69.9327 15.6452 13.1342 3.43533 0.764692 4.63214 19.1391 5.72807 29.8703 7.82586 -0.130764 -124.683 33.1461 152.781 9.52751 0.295786 -0.907742 176.477 77.7619 -153.056 27.5574 4.95586 2.47156 -0.0179792 -17.2832 -24.9412 1.20734 -0.998971 20.1238 -60.7147 37.4091 -144.059 26.8049 -0.0536703 -0.155908 25.1207 -5.09734 -99.9759 26.6817 -1.42109e-014 0.320147 -3.18055e-015 0 3.18055e-015 27.5927 4.71444 -2.65209 -1.78251 7.27808 38.8891 2.83739 -1.17114 -18.7564 -135.499 -13.7579 89.0937 28.839 -0.0548439 1.22491 21.181 -2.02461 84.6234 26.5114 2.84217e-014 -0.101894 -1.10925e-012 -4.76473e-009 -0.0296889 -4.76168 -1.9167 -10.2353 -56.2779 8.08264 96.1065 2.55951 -42.0585 -8.02213 -1.5525 34.553 -3.34051 3.16357 -42.5282 -3.95426 -1.13325 -14.2638 -1.22365 0.346054 -6.02161 12.8035 3.08361 -8.98722 10.2845 -4.94151 -1.41743 10.6446 -44.1 -12.4788 82.1714 -2.56294 -42.0364 -7.94377 0.265109 26.5103 4.55261 -3.0952 -42.555 -4.02241 -5.6068 1.28316 0.83686 -0.0828122 -6.13587 12.8035 0.514067 -7.99547 4.72934 
0 0 0 0 0 -0 19.4946 94.4178 -0.140724 68.4818 -34.9934 -13.0205 -2.69724 7.43032 -0.144315 -70.1915 -2.98177e-015 88.8779 -0.0310711 10.7595 1.96963 64.4903 69.897 15.6795 13.1342 3.43533 0.764692 4.76447 19.0994 5.773 29.8703 7.82586 -0.130764 -124.963 33.2349 153.073 9.52751 0.295786 -0.907742 175.568 77.6878 -152.208 27.5574 4.95586 2.47156 -0.00707305 -17.2296 -24.8964 1.20734 -0.998971 20.1238 -60.7559 37.4784 -143.968 26.8049 -0.0536703 -0.155908 25.802 -5.14262 -99.7527 26.6817 -4.26326e-014 0.320147 -6.36111e-015 0 3.18055e-015 27.5927 4.71444 -2.65209 -1.81504 7.44801 38.7319 2.83739 -1.17114 -18.7564 -135.622 -13.8041 88.9193 28.839 -0.0548439 1.22491 21.0319 -1.94956 84.7714 26.5114 1.42109e-014 -0.101894 -1.11084e-012 -4.76473e-009 -0.0296889 -4.76168 -1.9167 -10.2353 -56.4545 8.09229 96.1592 2.55951 -42.0585 -8.02213 -1.53179 34.343 -3.27495 3.16357 -42.5282 -3.95426 -1.46921 -14.2145 -1.21802 0.346054 -6.02161 12.8035 3.29202 -9.30701 10.0883 -4.94151 -1.41743 10.6446 -44.0436 -12.4932 82.2104 -2.56294 -42.0364 -7.94377 0.210088 26.6632 3.86447 -3.0952 -42.555 -4.02241 -4.9046 0.776544 0.755367 -0.0828122 -6.13587 12.8035 0.220316 -7.07145 6.06117 
0 0 0 0 0 -0 19.5018 94.4002 -0.134633 68.5275 -34.9728 -12.9759 -2.69724 7.43032 -0.144315 -70.1915 -5.76476e-015 88.8779 -0.0310711 10.7595 1.96963 65.4837 70.1044 14.7164 13.1342 3.43533 0.764692 4.20669 19.2211 5.70531 29.8703 7.82586 -0.130764 -124.083 32.9138 152.08 9.52751 0.295786 -0.907742 176.541 77.8059 -152.73 27.5574 4.95586 2.47156 -0.0271581 -17.4856 -24.6247 1.20734 -0.998971 20.1238 -60.5996 37.6054 -144.007 26.8049 -0.0536703 -0.155908 24.9703 -5.15972 -100.174 26.6817 -1.42109e-014 0.320147 -0 -3.18055e-015 -0 27.5927 4.71444 -2.65209 -1.79337 7.19524 39.3427 2.83739 -1.17114 -18.7564 -135.407 -13.1488 89.2889 28.839 -0.0548439 1.22491 20.5657 -1.87945 84.83 26.5114 1.42109e-014 -0.101894 -1.10448e-012 -4.76475e-009 -0.0296889 -4.76168 -1.9167 -10.2353 -56.4111 8.22868 96.358 2.55951 -42.0585 -8.02213 -1.5523 34.4536 -2.90825 3.16357 -42.5282 -3.95426 -1.1939 -14.2733 -1.22461 0.346054 -6.02161 12.8035 3.24567 -9.02485 9.0151 -4.94151 -1.41743 10.6446 -44.0814 -12.4823 82.2075 -2.56294 -42.0364 -7.94377 0.212877 26.6816 3.93386 -3.0952 -42.555 -4.02241 -4.93061 0.956718 0.753473 -0.0828122 -6.13587 12.8035 0.409009 -7.83631 5.57743 
0 0 0 0 0 -0 19.5064 94.4234 -0.0945017 68.442 -34.9895 -13.0823 -2.69724 7.43032 -0.144315 -70.1915 -1.98785e-015 88.8779 -0.0310711 10.7595 1.96963 65.4556 69.947 14.9537 13.1342 3.43533 0.764692 4.30538 19.2005 5.23924 29.8703 7.82586 -0.130764 -124.12 32.8373 151.94 9.52751 0.295786 -0.907742 176.769 77.7778 -153.041 27.5574 4.95586 2.47156 0.0355061 -17.233 -24.2296 1.20734 -0.998971 20.1238 -60.4254 37.7609 -144.215 26.8049 -0.0536703 -0.155908 24.9542 -5.03213 -99.9214 26.6817 -2.84217e-014 0.320147 -3.18055e-015 6.36111e-015 -3.18055e-015 27.5927 4.71444 -2.65209 -1.84226 7.30185 39.6215 2.83739 -1.17114 -18.7564 -135.433 -13.225 89.3818 28.839 -0.0548439 1.22491 20.9216 -1.95526 84.7292 26.5114 2.84217e-014 -0.101894 -1.10368e-012 -4.76473e-009 -0.0296889 -4.76168 -1.9167 -10.2353 -56.3639 8.09556 96.1248 2.55951 -42.0585 -8.02213 -1.48839 34.4175 -2.90179 3.16357 -42.5282 -3.95426 -0.943316 -14.0765 -1.2074 0.346054 -6.02161 12.8035 3.31638 -9.18608 9.21596 -4.94151 -1.41743 10.6446 -44.0587 -12.4032 82.3479 -2.56294 -42.0364 -7.94377 0.223421 26.6768 4.74854 -3.0952 -42.555 -4.02241 -5.32708 1.40472 0.793775 -0.0828122 -6.13587 12.8035 0.721924 -8.66762 3.6288 
